<?xml version="1.0" encoding="UTF-8" standalone="no"?>
<svg xmlns:dc="http://purl.org/dc/elements/1.1/" xmlns:cc="http://creativecommons.org/ns#" xmlns:rdf="http://www.w3.org/1999/02/22-rdf-syntax-ns#" xmlns:svg="http://www.w3.org/2000/svg" xmlns="http://www.w3.org/2000/svg" viewBox="0 0 868 131.89333" height="131.89333" width="868" xml:space="preserve" id="svg2" version="1.1">
    <metadata id="metadata8">
        <rdf:RDF>
            <cc:Work rdf:about="">
                <dc:format>image/svg+xml</dc:format>
                <dc:type rdf:resource="http://purl.org/dc/dcmitype/StillImage" />
            </cc:Work>
        </rdf:RDF>
    </metadata>
    <defs id="defs6">
        <clipPath id="clipPath34" clipPathUnits="userSpaceOnUse">
            <path id="path32" d="m 5142.06,720.102 c 94.46,-2 135.63,46.082 24.46,81.332 C 4984.84,859.043 4541.64,460.613 4586.7,424.43 l -29.03,-117.766 21.89,-3.769 c 0,0 -9.51,88.378 179.18,232.289 128.23,97.796 225.65,188.261 383.32,184.918 z" />
        </clipPath>
        <linearGradient id="linearGradient44" spreadMethod="pad" gradientTransform="matrix(-524.953,-219.935,-219.935,524.953,5058.29,651.488)" gradientUnits="userSpaceOnUse" y2="0" x2="1" y1="0" x1="0">
            <stop id="stop36" offset="0" style="stop-opacity:1;stop-color:#349d8d" />
            <stop id="stop38" offset="0.31357" style="stop-opacity:1;stop-color:#339d81" />
            <stop id="stop40" offset="0.999465" style="stop-opacity:1;stop-color:#2b3a95" />
            <stop id="stop42" offset="1" style="stop-opacity:1;stop-color:#2b3a95" />
        </linearGradient>
        <clipPath id="clipPath54" clipPathUnits="userSpaceOnUse">
            <path id="path52" d="m 4361.97,154.672 c 19.93,-36.113 167.22,-123.2228 279.6,92.121 106.78,204.633 288.02,417.684 420.56,477.652 70.1,31.723 147.1,58.965 147.1,58.965 -16.28,11.938 -234.87,106.883 -470.51,2.723 -221.29,-97.82 -331.85,-255.66 -376,-413.414 -43.5,-155.418 -10.9,-199.668 -0.75,-218.047 z" />
        </clipPath>
        <radialGradient id="radialGradient62" spreadMethod="pad" gradientTransform="matrix(-599.527,135.479,252.021,834.203,4953.36,339.129)" gradientUnits="userSpaceOnUse" r="1" cy="0" cx="0" fy="0" fx="0">
            <stop id="stop56" offset="0" style="stop-opacity:1;stop-color:#60c4ec" />
            <stop id="stop58" offset="0.390179" style="stop-opacity:1;stop-color:#60c4ec" />
            <stop id="stop60" offset="1" style="stop-opacity:1;stop-color:#254080" />
        </radialGradient>
        <clipPath id="clipPath72" clipPathUnits="userSpaceOnUse">
            <path id="path70" d="m 4534.46,93.1875 c -92.8,-3.6016 -148.97,-61.75 -3.44,-65.7109 113.35,-3.0977 558.8,375.7114 558.8,375.7114 l 29.02,117.761 -21.88,3.778 c 0,0 -8.82,-165.692 -214.68,-283.747 C 4723.25,149.77 4607.56,96.0273 4534.46,93.1875 Z" />
        </clipPath>
        <linearGradient id="linearGradient82" spreadMethod="pad" gradientTransform="matrix(676.838,0,0,-676.838,4442.01,276.09)" gradientUnits="userSpaceOnUse" y2="0" x2="1" y1="0" x1="0">
            <stop id="stop74" offset="0" style="stop-opacity:1;stop-color:#349d8d" />
            <stop id="stop76" offset="0.31357" style="stop-opacity:1;stop-color:#339d81" />
            <stop id="stop78" offset="0.999465" style="stop-opacity:1;stop-color:#2b3a95" />
            <stop id="stop80" offset="1" style="stop-opacity:1;stop-color:#2b3a95" />
        </linearGradient>
        <clipPath id="clipPath92" clipPathUnits="userSpaceOnUse">
            <path id="path90" d="M 5286.41,677.109 C 5234.17,729.258 5103.79,718.496 4957.68,524.457 4811.8,330.719 4691.5,101.676 4575.64,56.8984 4503.88,29.1641 4457.86,38.6445 4457.86,38.6445 c 0,0 217.53,-91.4492 451.78,7.0039 223.06,93.7426 331.86,255.6646 376.01,413.4146 43.49,155.417 15.61,203.214 0.76,218.046 z" />
        </clipPath>
        <radialGradient id="radialGradient100" spreadMethod="pad" gradientTransform="matrix(430.476,-693.754,-676.568,-355.858,5000.16,584.96)" gradientUnits="userSpaceOnUse" r="1" cy="0" cx="0" fy="0.011396" fx="-0.18486901">
            <stop id="stop94" offset="0" style="stop-opacity:1;stop-color:#60c4ec" />
            <stop id="stop96" offset="0.338256" style="stop-opacity:1;stop-color:#60c4ec" />
            <stop id="stop98" offset="1" style="stop-opacity:1;stop-color:#254080" />
        </radialGradient>
    </defs>
    <g transform="matrix(1.3333333,0,0,-1.3333333,0,131.89333)" id="g10">
        <g transform="scale(0.1)" id="g12">
            <path id="path14" style="fill:#f57a15;fill-opacity:1;fill-rule:nonzero;stroke:none" d="m 524.219,297.086 c -39.84,39.844 -39.84,104.43 0,144.266 39.836,39.839 104.422,39.839 144.261,0 L 932.02,177.816 c 39.835,-39.843 39.835,-104.4332 0,-144.2652 -39.84,-39.83596 -104.43,-39.83596 -144.262,0 L 524.219,297.086" />
            <path id="path16" style="fill:#254282;fill-opacity:1;fill-rule:nonzero;stroke:none" d="m 1713.26,968.34 c -72.02,0 -137.86,-26.266 -188.64,-69.637 -50.78,43.371 -116.61,69.637 -188.63,69.637 -160.55,0 -290.71,-130.16 -290.71,-290.715 V 110.883 c 0,-56.3752 45.7,-102.07831 102.08,-102.07831 56.38,0 102.09,45.70311 102.09,102.07831 v 566.742 c 0,47.801 38.75,86.543 86.54,86.543 47.8,0 86.55,-38.742 86.55,-86.543 V 110.883 c 0,-56.3752 45.71,-102.07831 102.08,-102.07831 56.38,0 102.09,45.70311 102.09,102.07831 v 566.742 c 0,47.801 38.74,86.543 86.55,86.543 47.79,0 86.54,-38.742 86.54,-86.543 V 110.883 c 0,-56.3752 45.71,-102.07831 102.08,-102.07831 56.38,0 102.09,45.70311 102.09,102.07831 v 566.742 c 0,160.555 -130.16,290.715 -290.71,290.715 z M 754.52,472.598 c 0,-57.614 47.73,-104.086 105.804,-102.02 55.321,1.965 98.36,49.113 98.36,104.465 v 154.258 c 0,187.246 -151.789,339.031 -339.032,339.031 H 339.035 C 151.789,968.34 0,816.547 0,629.301 V 348.688 C 0,161.438 151.789,9.65234 339.035,9.65234 h 156.672 c 57.613,0 104.078,47.72656 102.016,105.80066 -1.969,55.32 -49.11,98.36 -104.469,98.36 H 339.035 c -74.484,0 -134.871,60.39 -134.871,134.875 v 280.613 c 0,74.488 60.387,134.867 134.871,134.867 h 280.617 c 74.481,0 134.868,-60.379 134.868,-134.867 z M 2193.69,9.65234 c -56.38,0 -102.08,45.70316 -102.08,102.07766 0,56.379 45.7,102.083 102.08,102.083 h 444.85 c 47.8,0 86.55,38.75 86.55,86.55 0,47.793 -38.75,86.543 -86.55,86.543 H 2365.7 c -160.56,0 -290.71,130.164 -290.71,290.719 0,160.555 130.15,290.715 290.71,290.715 h 443.8 c 56.38,0 102.08,-45.707 102.08,-102.086 0,-56.375 -45.7,-102.086 -102.08,-102.086 h -443.8 c -47.8,0 -86.55,-38.742 -86.55,-86.543 0,-47.801 38.75,-86.547 86.55,-86.547 h 272.84 c 160.56,0 290.71,-130.156 290.71,-290.715 0,-160.554 -130.15,-290.71066 -290.71,-290.71066 h -444.85" />
            <path id="path18" style="fill:#254282;fill-opacity:1;fill-rule:nonzero;stroke:none" d="m 3005.34,934.707 h 12.11 c 5.79,0 9.74,0.863 11.85,2.594 2.1,1.722 3.16,4.012 3.16,6.851 0,1.828 -0.51,3.469 -1.52,4.914 -1.02,1.45 -2.43,2.528 -4.23,3.239 -1.8,0.711 -5.14,1.07 -10.02,1.07 h -11.35 z m -9.98,-34.816 v 61.863 h 21.25 c 7.27,0 12.52,-0.574 15.78,-1.715 3.24,-1.144 5.84,-3.137 7.76,-5.98 1.93,-2.848 2.9,-5.868 2.9,-9.063 0,-4.523 -1.61,-8.465 -4.83,-11.812 -3.24,-3.352 -7.51,-5.231 -12.85,-5.637 2.19,-0.918 3.94,-2.012 5.26,-3.277 2.49,-2.434 5.54,-6.528 9.15,-12.262 l 7.54,-12.117 h -12.19 l -5.49,9.75 c -4.31,7.672 -7.8,12.472 -10.44,14.402 -1.82,1.418 -4.48,2.133 -8,2.133 h -5.86 v -26.285 z m 25.21,79.765 c -8.07,0 -15.93,-2.074 -23.57,-6.211 -7.65,-4.14 -13.62,-10.054 -17.94,-17.754 -4.32,-7.687 -6.47,-15.703 -6.47,-24.031 0,-8.277 2.12,-16.215 6.35,-23.805 4.25,-7.593 10.17,-13.511 17.79,-17.753 7.62,-4.239 15.57,-6.36 23.84,-6.36 8.29,0 16.24,2.121 23.85,6.36 7.62,4.242 13.54,10.16 17.76,17.753 4.21,7.59 6.31,15.528 6.31,23.805 0,8.328 -2.14,16.344 -6.43,24.031 -4.29,7.7 -10.27,13.614 -17.95,17.754 -7.66,4.137 -15.51,6.211 -23.54,6.211 z m 0,9.516 c 9.66,0 19.08,-2.469 28.27,-7.422 9.19,-4.953 16.35,-12.039 21.48,-21.254 5.13,-9.219 7.7,-18.832 7.7,-28.836 0,-9.902 -2.53,-19.43 -7.58,-28.57 -5.06,-9.141 -12.14,-16.238 -21.26,-21.289 -9.11,-5.055 -18.65,-7.582 -28.61,-7.582 -9.95,0 -19.48,2.527 -28.6,7.582 -9.12,5.051 -16.21,12.148 -21.29,21.289 -5.09,9.14 -7.62,18.668 -7.62,28.57 0,10.004 2.57,19.617 7.73,28.836 5.16,9.215 12.33,16.301 21.53,21.254 9.19,4.953 18.61,7.422 28.25,7.422" />
            <path id="path20" style="fill:#f57c16;fill-opacity:1;fill-rule:nonzero;stroke:none" d="m 3622.43,258.852 c 41.7,155.671 -448.6,55.441 -369.3,351.421 44.24,165.079 218.43,242.946 364.65,242.946 165.11,0 294.08,-73.117 250.99,-255.918 h -171 c 13.03,83.722 -28.04,110.847 -116.51,110.847 -49.52,0 -125.43,-23.574 -141.55,-83.746 C 3401.48,481.727 3892.43,584.324 3810.6,278.91 3760.03,90.2266 3572.76,20.6289 3408.85,20.6289 c -176.9,0 -315.06,87.2851 -263.79,283.0471 h 179.24 c -20.86,-95.528 42.9,-139.18 130.16,-139.18 55.42,0 148.7,22.422 167.97,94.356" />
            <path id="path22" style="fill:#f57c16;fill-opacity:1;fill-rule:nonzero;stroke:none" d="m 4180.17,702.27 -63.52,-237.036 h 94.33 c 51.9,0 117.52,42.442 138.06,119.09 19.6,73.11 -22.64,117.946 -74.54,117.946 z M 4002.57,39.5156 h -176.89 l 214.87,801.8824 h 300.72 c 129.72,0 217.15,-104.937 176.39,-257.074 C 4474.07,421.586 4332.9,326.078 4203.19,326.078 h -123.82 l -76.8,-286.5624" />
            <path id="path24" style="fill:#f57c16;fill-opacity:1;fill-rule:nonzero;stroke:none" d="m 5463.59,702.27 -63.51,-237.036 h 94.33 c 51.89,0 117.52,42.442 138.04,119.09 19.6,73.11 -22.63,117.946 -74.54,117.946 z M 5286,39.5156 h -176.9 l 214.87,801.8824 h 300.72 c 129.72,0 217.16,-104.937 176.4,-257.074 C 5764.76,448.711 5659.37,359.098 5551.31,334.332 L 5702.27,39.5156 H 5478.23 L 5363.96,326.078 h -1.17 L 5286,39.5156" />
            <path id="path26" style="fill:#f57c16;fill-opacity:1;fill-rule:nonzero;stroke:none" d="m 6066.33,39.5156 h -176.86 l 171.9,641.5074 h -228.79 l 42.96,160.375 H 6510 L 6467.03,681.023 H 6238.24 L 6066.33,39.5156" />
            <g id="g28">
                <g clip-path="url(#clipPath34)" id="g30">
                    <path id="path46" style="fill:url(#linearGradient44);fill-opacity:1;fill-rule:nonzero;stroke:none" d="m 5142.06,720.102 c 94.46,-2 135.63,46.082 24.46,81.332 C 4984.84,859.043 4541.64,460.613 4586.7,424.43 l -29.03,-117.766 21.89,-3.769 c 0,0 -9.51,88.378 179.18,232.289 128.23,97.796 225.65,188.261 383.32,184.918" />
                </g>
            </g>
            <g id="g48">
                <g clip-path="url(#clipPath54)" id="g50">
                    <path id="path64" style="fill:url(#radialGradient62);fill-opacity:1;fill-rule:nonzero;stroke:none" d="m 4361.97,154.672 c 19.93,-36.113 167.22,-123.2228 279.6,92.121 106.78,204.633 288.02,417.684 420.56,477.652 70.1,31.723 147.1,58.965 147.1,58.965 -16.28,11.938 -234.87,106.883 -470.51,2.723 -221.29,-97.82 -331.85,-255.66 -376,-413.414 -43.5,-155.418 -10.9,-199.668 -0.75,-218.047" />
                </g>
            </g>
            <g id="g66">
                <g clip-path="url(#clipPath72)" id="g68">
                    <path id="path84" style="fill:url(#linearGradient82);fill-opacity:1;fill-rule:nonzero;stroke:none" d="m 4534.46,93.1875 c -92.8,-3.6016 -148.97,-61.75 -3.44,-65.7109 113.35,-3.0977 558.8,375.7114 558.8,375.7114 l 29.02,117.761 -21.88,3.778 c 0,0 -8.82,-165.692 -214.68,-283.747 C 4723.25,149.77 4607.56,96.0273 4534.46,93.1875" />
                </g>
            </g>
            <g id="g86">
                <g clip-path="url(#clipPath92)" id="g88">
                    <path id="path102" style="fill:url(#radialGradient100);fill-opacity:1;fill-rule:nonzero;stroke:none" d="M 5286.41,677.109 C 5234.17,729.258 5103.79,718.496 4957.68,524.457 4811.8,330.719 4691.5,101.676 4575.64,56.8984 4503.88,29.1641 4457.86,38.6445 4457.86,38.6445 c 0,0 217.53,-91.4492 451.78,7.0039 223.06,93.7426 331.86,255.6646 376.01,413.4146 43.49,155.417 15.61,203.214 0.76,218.046" />
                </g>
            </g>
        </g>
    </g>
</svg>