<svg xmlns="http://www.w3.org/2000/svg" width="20" height="20" viewBox="0 0 20 20">
    <g fill="#024288" fill-rule="evenodd">
        <path fill="#888E95" fill-rule="nonzero" d="M18.75 8.105l-1.602-.351a7.655 7.655 0 0 0-.468-1.152l.86-1.446a2.19 2.19 0 0 0 .263-.576c.058-.202.068-.413.029-.635a1.037 1.037 0 0 0-.293-.566L16.66 2.5a1.123 1.123 0 0 0-.42-.264 1.28 1.28 0 0 0-.488-.078 1.724 1.724 0 0 0-.479.088c-.156.052-.299.117-.43.195l-1.405.899-.157-.078-.156-.078-.156-.069-.166-.068-.166-.068-.166-.06-.166-.048-.352-1.64a1.704 1.704 0 0 0-.469-.85C11.237.127 10.951 0 10.625 0h-1.25c-.326 0-.596.124-.81.371-.215.247-.362.54-.44.879l-.41 1.602a6.952 6.952 0 0 0-1.211.507l-1.445-.918a1.574 1.574 0 0 0-.577-.244 1.583 1.583 0 0 0-.654 0c-.221.046-.41.147-.566.303l-.899.879c-.221.286-.322.58-.302.879.02.3.12.599.302.898l.918 1.524a7.686 7.686 0 0 0-.43 1.074l-1.601.351a1.74 1.74 0 0 0-.87.46c-.253.24-.38.53-.38.869v1.25c0 .312.124.579.371.8.247.222.54.371.879.45l1.621.39c.104.326.241.658.41.996l-.918 1.524c-.182.3-.283.599-.302.898-.02.3.08.593.302.88l.899.878c.26.234.56.348.898.342.339-.007.638-.101.899-.283l1.445-.918.234.117.244.107.254.098.254.098.244.087.391 1.602c.078.339.228.632.45.879.22.247.488.371.8.371h1.25c.221 0 .43-.062.625-.186.195-.123.352-.28.469-.468.117-.19.195-.388.234-.596l.352-1.621c.39-.117.768-.274 1.133-.469l1.406.899c.273.182.58.276.918.283.338.006.638-.108.898-.342l.88-.879c.22-.286.321-.58.302-.879-.02-.3-.12-.599-.303-.898l-.86-1.446c.183-.351.333-.71.45-1.074l1.621-.39c.339-.079.632-.228.879-.45.247-.221.371-.488.371-.8v-1.25c0-.508-.267-.899-.8-1.172a1.42 1.42 0 0 0-.45-.157zm0 2.48a.227.227 0 0 1-.059.04.758.758 0 0 1-.097.04l-.117.038-2.325.586-.215.645c-.052.156-.107.309-.166.459-.058.15-.126.296-.205.439l-.312.625 1.23 2.031a.936.936 0 0 1 .118.313l-.82.82a.669.669 0 0 1-.137-.049.329.329 0 0 1-.079-.049l-2.05-1.308-.645.332c-.104.052-.208.1-.312.146l-.313.137-.312.107-.684.235-.508 2.324a.575.575 0 0 1-.137.254H9.473a.868.868 0 0 1-.118-.273l-.585-2.305-.665-.215a1.955 1.955 0 0 1-.107-.039 1.955 1.955 0 0 0-.107-.04l-.118-.038-.117-.049-.117-.049-.117-.049-.108-.048-.107-.05-.117-.068-.645-.332-2.05 1.309a.446.446 0 0 1-.254.098l-.82-.801a.767.767 0 0 1 .116-.293l1.27-2.13-.293-.605a7.056 7.056 0 0 1-.351-.82l-.215-.664-2.285-.586a.871.871 0 0 1-.313-.117V9.434c.013 0 .03-.007.049-.02.02-.013.045-.03.078-.049a.175.175 0 0 1 .088-.03l2.363-.526.215-.684a5.76 5.76 0 0 1 .352-.898l.312-.606-1.27-2.11a4.046 4.046 0 0 1-.078-.165.378.378 0 0 1-.039-.147l.82-.82.215.098 2.09 1.328.645-.332c.325-.17.664-.313 1.015-.43l.665-.215.566-2.265a.692.692 0 0 1 .137-.313h1.152l.02.059a.153.153 0 0 1 .029.039.303.303 0 0 1 .02.058.124.124 0 0 0 .029.059l.507 2.363.684.235c.326.104.645.234.957.39l.645.332 2.011-1.289a.518.518 0 0 1 .254-.078l.82.8a.605.605 0 0 0-.038.118.44.44 0 0 1-.079.156l-1.23 2.051.312.625c.092.17.17.332.235.488.065.157.117.313.156.469l.215.684 2.324.527c.143.026.234.072.274.137l-.02 1.113zM10.01 6.25c-1.035 0-1.92.365-2.656 1.094C6.618 8.073 6.25 8.958 6.25 10s.368 1.927 1.104 2.656c.735.73 1.617 1.094 2.646 1.094a3.75 3.75 0 0 0 1.475-.293 3.734 3.734 0 0 0 1.2-.8c.34-.34.606-.74.802-1.202A3.7 3.7 0 0 0 13.77 10c0-1.042-.368-1.927-1.104-2.656A3.637 3.637 0 0 0 10.01 6.25zM10 12.5c-.69 0-1.28-.244-1.768-.732A2.409 2.409 0 0 1 7.5 10c0-.69.244-1.28.732-1.768A2.409 2.409 0 0 1 10 7.5c.69 0 1.28.244 1.768.732.488.489.732 1.078.732 1.768s-.244 1.28-.732 1.768A2.409 2.409 0 0 1 10 12.5z"/>
        <path fill="#000" fill-opacity="0" d="M0 0h20v20H0z"/>
    </g>
</svg>
