<svg xmlns="http://www.w3.org/2000/svg" width="24" height="24" viewBox="0 0 24 24">
    <g fill="#024288" fill-rule="evenodd">
        <path d="M19.98 19h-9.359a1 1 0 1 1 0-2h8.617l2.416-8H8a1 1 0 1 1 0-2h15a.997.997 0 0 1 .956 1.289l-3.02 10a1 1 0 0 1-.957.711M20 22a1 1 0 1 0-1.998-.002A1 1 0 0 0 20 22"/>
        <path d="M19 24c-1.103 0-2-.897-2-2s.897-2 2-2 2 .897 2 2-.897 2-2 2M13 22a1 1 0 1 0-1.999.001A1 1 0 0 0 13 22"/>
        <path d="M12.001 24A2.002 2.002 0 0 1 10 22a2.001 2.001 0 1 1 2.001 2M10.62 19c-.439 0-.843-.293-.964-.737L5.56 3.193C5.39 2.568 4.646 2 4 2H1a1 1 0 1 1 0-2h3c1.551 0 3.083 1.172 3.49 2.669l4.096 15.068A1.001 1.001 0 0 1 10.62 19"/>
    </g>
</svg>
